<svg width="22" height="22" viewBox="0 0 22 22" fill="none" xmlns="http://www.w3.org/2000/svg">
<path d="M19.45 8.55L18.25 8L19.45 7.45L20 6.25L20.55 7.45L21.75 8L20.55 8.55L20 9.75L19.45 8.55ZM16.175 3.825L14.375 3L16.175 2.175L17 0.375L17.825 2.175L19.625 3L17.825 3.825L17 5.625L16.175 3.825ZM7 21.575C6.5 21.575 6.06667 21.4 5.7 21.05C5.33333 20.7 5.13333 20.275 5.1 19.775H8.9C8.86667 20.275 8.66667 20.7 8.3 21.05C7.93333 21.4 7.5 21.575 7 21.575ZM4 18.375C3.78333 18.375 3.60433 18.3043 3.463 18.163C3.321 18.021 3.25 17.8417 3.25 17.625C3.25 17.425 3.321 17.25 3.463 17.1C3.60433 16.95 3.78333 16.875 4 16.875H10C10.2167 16.875 10.396 16.95 10.538 17.1C10.6793 17.25 10.75 17.425 10.75 17.625C10.75 17.8417 10.6793 18.021 10.538 18.163C10.396 18.3043 10.2167 18.375 10 18.375H4ZM3.4 15.5C2.35 14.85 1.521 14 0.913 12.95C0.304333 11.9 0 10.75 0 9.5C0 7.55 0.679 5.89567 2.037 4.537C3.39567 3.179 5.05 2.5 7 2.5C8.95 2.5 10.6043 3.179 11.963 4.537C13.321 5.89567 14 7.55 14 9.5C14 10.75 13.696 11.9 13.088 12.95C12.4793 14 11.65 14.85 10.6 15.5H3.4Z" fill="#FFCB14"/>
</svg>
