<svg width="20" height="20" viewBox="0 0 20 20" fill="none" xmlns="http://www.w3.org/2000/svg">
<path d="M10 19.5C8.68333 19.5 7.446 19.25 6.288 18.75C5.12933 18.25 4.125 17.575 3.275 16.725C2.425 15.875 1.75 14.8707 1.25 13.712C0.75 12.554 0.5 11.3167 0.5 10C0.5 8.68333 0.75 7.44567 1.25 6.287C1.75 5.129 2.425 4.125 3.275 3.275C4.125 2.425 5.12933 1.75 6.288 1.25C7.446 0.75 8.68333 0.5 10 0.5C11.3167 0.5 12.5543 0.75 13.713 1.25C14.871 1.75 15.875 2.425 16.725 3.275C17.575 4.125 18.25 5.129 18.75 6.287C19.25 7.44567 19.5 8.68333 19.5 10C19.5 11.3167 19.25 12.554 18.75 13.712C18.25 14.8707 17.575 15.875 16.725 16.725C15.875 17.575 14.871 18.25 13.713 18.75C12.5543 19.25 11.3167 19.5 10 19.5ZM9 17.95V16C8.45 16 7.97933 15.8043 7.588 15.413C7.196 15.021 7 14.55 7 14V13L2.2 8.2C2.15 8.5 2.104 8.8 2.062 9.1C2.02067 9.4 2 9.7 2 10C2 12.0167 2.66267 13.7833 3.988 15.3C5.31267 16.8167 6.98333 17.7 9 17.95ZM15.9 15.4C16.2333 15.0333 16.5333 14.6373 16.8 14.212C17.0667 13.7873 17.2877 13.3457 17.463 12.887C17.6377 12.429 17.771 11.9583 17.863 11.475C17.9543 10.9917 18 10.5 18 10C18 8.36667 17.546 6.87067 16.638 5.512C15.7293 4.154 14.5167 3.175 13 2.575V3C13 3.55 12.8043 4.02067 12.413 4.412C12.021 4.804 11.55 5 11 5H9V7C9 7.28333 8.90433 7.52067 8.713 7.712C8.521 7.904 8.28333 8 8 8H6V10H12C12.2833 10 12.521 10.0957 12.713 10.287C12.9043 10.479 13 10.7167 13 11V14H14C14.4333 14 14.825 14.129 15.175 14.387C15.525 14.6457 15.7667 14.9833 15.9 15.4Z" fill="#BD32FF"/>
</svg>
