<svg width="48" height="48" viewBox="0 0 48 48" fill="none" xmlns="http://www.w3.org/2000/svg">
<g clip-path="url(#clip0_8_611)">
<path d="M29.3766 12H18.623C14.9711 12 12 14.9712 12 18.6231V29.3768C12 33.0288 14.9711 35.9999 18.623 35.9999H29.3766C33.0288 35.9999 35.9999 33.0287 35.9999 29.3768V18.6231C36 14.9712 33.0288 12 29.3766 12ZM33.8706 29.3768C33.8706 31.8547 31.8547 33.8705 29.3768 33.8705H18.623C16.1452 33.8706 14.1294 31.8547 14.1294 29.3768V18.6231C14.1294 16.1453 16.1452 14.1294 18.623 14.1294H29.3766C31.8545 14.1294 33.8705 16.1453 33.8705 18.6231V29.3768H33.8706Z" fill="#8687A0"/>
<path d="M24 17.8164C20.59 17.8164 17.8158 20.5906 17.8158 24.0006C17.8158 27.4104 20.59 30.1844 24 30.1844C27.4099 30.1844 30.1841 27.4104 30.1841 24.0006C30.1841 20.5906 27.4099 17.8164 24 17.8164ZM24 28.0549C21.7642 28.0549 19.9452 26.2361 19.9452 24.0004C19.9452 21.7646 21.7641 19.9456 24 19.9456C26.2358 19.9456 28.0547 21.7646 28.0547 24.0004C28.0547 26.2361 26.2357 28.0549 24 28.0549Z" fill="#8687A0"/>
<path d="M30.4435 16.0107C30.0332 16.0107 29.6302 16.1768 29.3405 16.4678C29.0493 16.7574 28.882 17.1606 28.882 17.5723C28.882 17.9827 29.0495 18.3857 29.3405 18.6767C29.6301 18.9663 30.0332 19.1338 30.4435 19.1338C30.8552 19.1338 31.2569 18.9663 31.5479 18.6767C31.8389 18.3857 32.005 17.9826 32.005 17.5723C32.005 17.1606 31.8389 16.7574 31.5479 16.4678C31.2583 16.1768 30.8552 16.0107 30.4435 16.0107Z" fill="#8687A0"/>
</g>
<defs>
<clipPath id="clip0_8_611">
<rect width="40" height="40" fill="white" transform="translate(4 4)"/>
</clipPath>
</defs>
</svg>
